<svg role="img" aria-label="Zemoga Inc, Logo" version="1.0" id="z-logo" xmlns="http://www.w3.org/2000/svg" x="0" y="0" width="140px" height="40px" shape-rendering="geometricPrecision" viewBox="0 0 472 138" enable-background="new new 0 0 472 138" class="z-logo--expanded" data-reactid="52"><title data-reactid="53">Zemoga Inc, Logo</title><desc data-reactid="54">Zemoga Inc, Company logo</desc><g class="z-logo-word z-logo--light" transform="translate(0, 0)" data-reactid="55"><path d="M1.6,49.6h50l-31,47.6h31V108H0.4l31-47.6H1.7V49.6L1.6,49.6L1.6,49.6z" data-reactid="56"></path><path d="M110.8,79.9H70c0.3,5.6,2.1,10,5.6,13.2C79,96.4,83.4,98,88.8,98c7.6,0,14.5-2.3,20.9-7v11.1c-3.5,2.4-7.1,4.1-10.5,5.1 c-3.5,1-7.5,1.5-12.2,1.5c-6.3,0-11.6-1.4-15.5-4c-4-2.7-7.1-6.2-9.5-10.7s-3.6-9.7-3.6-15.6c0-8.9,2.5-16.1,7.5-21.6 c5-5.6,11.5-8.4,19.5-8.4c7.7,0,13.8,2.7,18.5,8.2c4.6,5.4,6.9,12.7,6.9,21.9V79.9L110.8,79.9z M70.3,72.9h29.2 c-0.3-4.6-1.7-8.3-4.1-10.8s-5.7-3.8-9.9-3.8c-4.2,0-7.5,1.3-10.1,3.8C72.8,64.7,71.1,68.2,70.3,72.9z" data-reactid="57"></path><path d="M171.4,65.6V108h-11.6V75.4c0-6.5-0.8-11-2.6-13.5c-1.7-2.6-4.7-3.9-9.1-3.9c-2.4,0-4.6,0.6-6.7,1.7 c-2.1,1.1-4.3,3.1-6.9,5.9V108h-11.6V49.6h11.6v7.7c5.9-5.9,11.6-8.9,17.3-8.9c7.4,0,13.2,3.5,17.2,10.6 c6.2-7.1,12.7-10.6,19.3-10.6c5.7,0,10.3,2.1,13.9,6.2c3.6,4.1,5.5,10.5,5.5,18.9v34.4H196V73.2c0-4.9-1-8.6-3-11.2 c-2-2.6-4.8-3.9-8.5-3.9C180,58.2,175.6,60.7,171.4,65.6z" data-reactid="58"></path><path d="M251.2,49.4c8.9,0,16.2,2.9,22.1,8.6c5.8,5.7,8.8,13,8.8,21.7c0,8.4-3,15.4-8.9,21c-6,5.6-13.4,8.4-22.5,8.4 c-8.7,0-16-2.8-21.9-8.5c-5.8-5.7-8.8-12.7-8.8-21.3s3-15.7,8.9-21.4C234.9,52.3,242.4,49.4,251.2,49.4z M250.7,59.8 c-5.5,0-10,1.8-13.6,5.5c-3.5,3.6-5.3,8.4-5.3,14s1.9,10.2,5.5,13.8c3.6,3.5,8.3,5.3,13.9,5.3s10.3-1.8,13.8-5.4 c3.6-3.5,5.4-8.2,5.4-13.8s-1.9-10.2-5.7-13.9C261.1,61.6,256.4,59.8,250.7,59.8z" data-reactid="59"></path><path d="M292.1,69.9c0-6.2,2.3-11.1,6.8-14.8s10.8-5.4,18.7-5.4h24.1v8.9h-11.9c2.3,2.4,3.9,4.5,4.7,6.3c0.9,1.9,1.4,4.1,1.4,6.6 c0,3-0.8,6.1-2.6,9c-1.8,3-4,5.2-6.8,6.8c-2.7,1.6-7.2,2.9-13.4,3.7c-4.3,0.7-6.5,2.1-6.5,4.5c0,1.4,0.8,2.4,2.4,3.4 c1.7,0.8,4.6,1.8,8.9,2.7c7.1,1.5,11.7,2.8,13.8,3.7s3.9,2.2,5.6,3.8c2.8,2.8,4.2,6.3,4.2,10.5c0,5.5-2.4,10-7.4,13.2 c-4.9,3.3-11.6,5-19.7,5c-8.4,0-14.9-1.7-19.9-5c-5-3.4-7.4-7.8-7.4-13.3c0-7.9,4.9-13,14.6-15.3c-3.9-2.4-5.8-5-5.8-7.4 c0-1.9,0.8-3.5,2.5-5.1c1.7-1.5,3.9-2.6,6.8-3.4C296.4,84.5,292.1,78.3,292.1,69.9z M311.1,110.8c-3.9,0-7,0.8-9.5,2.4 c-2.4,1.6-3.7,3.8-3.7,6.3c0,6,5.4,9,16.2,9c5.1,0,9-0.8,11.9-2.3c2.8-1.5,4.2-3.6,4.2-6.4c0-2.7-1.8-4.9-5.3-6.7 C321.2,111.6,316.7,110.8,311.1,110.8z M313.8,59.6c-3.1,0-5.8,1.1-8,3.2c-2.2,2.1-3.3,4.7-3.3,7.7s1.1,5.5,3.2,7.5 c2.2,1.9,4.9,3,8.3,3c3.2,0,6-1,8.2-3s3.3-4.6,3.3-7.6s-1.1-5.7-3.3-7.7C319.8,60.6,317.1,59.6,313.8,59.6z" data-reactid="60"></path><path d="M387.2,72.8v24.8c0,2,0.7,3,2,3s3.5-1.1,6.3-3.2v7c-2.5,1.7-4.6,2.8-6.2,3.4c-1.6,0.6-3.2,0.9-4.9,0.9 c-4.9,0-7.7-1.9-8.6-5.7c-4.9,3.8-10.2,5.7-15.8,5.7c-4.1,0-7.5-1.4-10.2-4.1s-4.1-6-4.1-10c0-3.7,1.4-6.9,4-9.9 c2.6-2.9,6.4-5.1,11.3-6.8l14.8-5.1v-3.1c0-7.1-3.5-10.6-10.5-10.6c-6.3,0-12.5,3.3-18.5,9.8V56.4c4.5-5.2,11-7.9,19.4-7.9 c6.3,0,11.4,1.7,15.2,5c1.3,1,2.4,2.4,3.5,4.2c1,1.8,1.7,3.5,1.9,5.2C387,64.6,387.2,67.9,387.2,72.8z M375.9,96.3V79.1l-7.8,3 c-4,1.6-6.8,3.1-8.4,4.7c-1.6,1.6-2.4,3.5-2.4,5.9s0.8,4.4,2.3,5.9s3.5,2.3,6,2.3C369.4,100.7,372.8,99.3,375.9,96.3z" data-reactid="61"></path></g><g class="z-logo-symbol" transform="scale(1) translate(0, 0)" data-reactid="62"><polygon points="396.2,17.8 414.4,0.2 452.5,36.5 452.8,54 418.5,21.5 396.2,43.1" data-reactid="63"></polygon></g></svg>